Coordinates
version=1
nRows=13
nColumns=40
inDegrees=yes

Units are S.I. units (second, meters, Newtons, ...)
Angles are in degrees.

endheader
time	pelvis_tilt	pelvis_list	pelvis_rotation	pelvis_tx	pelvis_ty	pelvis_tz	hip_flexion_r	hip_adduction_r	hip_rotation_r	knee_angle_r	knee_angle_r_beta	ankle_angle_r	subtalar_angle_r	mtp_angle_r	hip_flexion_l	hip_adduction_l	hip_rotation_l	knee_angle_l	knee_angle_l_beta	ankle_angle_l	subtalar_angle_l	mtp_angle_l	lumbar_extension	lumbar_bending	lumbar_rotation	arm_flex_r	arm_add_r	arm_rot_r	elbow_flex_r	pro_sup_r	wrist_flex_r	wrist_dev_r	arm_flex_l	arm_add_l	arm_rot_l	elbow_flex_l	pro_sup_l	wrist_flex_l	wrist_dev_l
      1.59000000	     -0.43052840	      0.66472926	      3.51120602	      0.37080284	      0.89094533	      1.08422026	     24.68877690	     -6.82017531	    -10.58247968	    -62.67359466	     -1.09386058	      0.59171095	    -16.94853997	     19.37369511	      9.69683739	     -1.30640447	      8.74397273	    -29.25991478	     -0.51068185	     13.27445429	      6.62641813	      2.42178359	     -4.89332563	     -2.15082672	     -5.01685117	     -3.07038651	     -7.89455923	    -14.66652949	     23.28099747	     89.95437384	      0.00000000	      0.00000000	      3.00579877	     11.64236808	     13.13824044	     38.53761610	     89.95437384	      0.00000000	      0.00000000
      1.60000000	      0.28760032	      0.48782461	      3.96123823	      0.38053661	      0.89212826	      1.08360253	     24.50235772	     -6.66616534	    -11.18334002	    -60.41254096	     -1.05439775	      1.64027942	    -16.99212942	     19.54728770	      7.87257345	     -0.91554097	      8.90927762	    -28.58153955	     -0.49884197	     13.25937099	      5.02791913	      1.70432782	     -5.78180733	     -1.87204322	     -5.60822061	     -3.03018300	     -7.65916526	    -15.45283629	     22.44636916	     89.95437384	      0.00000000	      0.00000000	      3.25611438	     11.87131758	     13.34351027	     40.15238974	     89.95437384	      0.00000000	      0.00000000
      1.61000000	     -0.03798675	      0.62755067	      4.17296379	      0.38965046	      0.89139255	      1.08300466	     25.75184197	     -6.93469574	    -11.39262920	    -58.35300192	     -1.01845201	      2.17100554	    -16.74591060	     19.21348533	      7.45473714	     -1.01441530	      9.17613809	    -28.40568774	     -0.49577278	     13.38423580	      4.75424995	      1.56051092	     -5.49162316	     -1.99401245	     -5.72381870	     -3.62955178	     -7.59663645	    -15.43489790	     22.28722993	     89.95437384	      0.00000000	      0.00000000	      3.80317357	     12.01722201	     13.30419219	     41.05536339	     89.95437384	      0.00000000	      0.00000000
      1.62000000	     -0.24477311	      0.67891739	      4.47950454	      0.39885334	      0.89074811	      1.08253861	     26.68099035	     -7.05594403	    -11.65259209	    -55.95148575	     -0.97653765	      2.85673201	    -16.66634631	     18.99264783	      6.84263739	     -1.01654473	      9.23897989	    -28.07648677	     -0.49002714	     13.64402198	      4.33336544	      1.36941181	     -5.32834100	     -2.02479354	     -6.02432222	     -4.03401136	     -7.48613573	    -15.55870509	     21.94071974	     89.95437384	      0.00000000	      0.00000000	      4.18530801	     12.26356606	     13.18153341	     42.13771708	     89.95437384	      0.00000000	      0.00000000
      1.63000000	      0.75745928	      0.18743743	      4.95710366	      0.40895380	      0.89212814	      1.08237908	     25.71943515	     -6.48152645	    -12.39266732	    -52.67081162	     -0.91927908	      3.47282378	    -16.55150448	     19.35040042	      4.74267073	     -0.11546369	      9.54664531	    -27.43589299	     -0.47884667	     13.58109099	      2.51680845	      0.37123164	     -6.48846824	     -1.35384448	     -6.48265492	     -4.09204841	     -7.29875275	    -16.44664180	     21.37012343	     89.95437384	      0.00000000	      0.00000000	      4.59749410	     12.46568797	     13.18454455	     43.43066101	     89.95437384	      0.00000000	      0.00000000
      1.64000000	      0.30156322	      0.51058788	      5.11409839	      0.41804934	      0.89082238	      1.08184775	     26.86148429	     -7.03185792	    -12.62672458	    -50.09618800	     -0.87434342	      3.66544307	    -16.11433425	     19.06113167	      4.51685321	     -0.42722318	      9.79076140	    -27.40782389	     -0.47835677	     13.67385373	      2.30516890	      0.24893072	     -6.06334530	     -1.68326875	     -6.50700520	     -4.70049895	     -7.25430680	    -16.40839704	     21.25576501	     89.95437384	      0.00000000	      0.00000000	      5.05570405	     12.58192027	     13.12713230	     44.39990674	     89.95437384	      0.00000000	      0.00000000
      1.65000000	      0.43005157	      0.34772975	      5.59184729	      0.42747924	      0.89063267	      1.08167305	     26.92832901	     -6.83456730	    -12.88331091	    -46.79499290	     -0.81672670	      3.37322676	    -15.95348553	     19.18516803	      3.48123377	     -0.16734559	      9.33543365	    -26.93268768	     -0.47006408	     13.99567988	      1.54222887	     -0.15939692	     -6.26136565	     -1.44166150	     -7.00529964	     -4.79584362	     -7.10657515	    -16.72821336	     20.57848231	     89.95437384	      0.00000000	      0.00000000	      5.32622508	     12.87923781	     12.94760231	     45.58323750	     89.95437384	      0.00000000	      0.00000000
      1.66000000	      0.02803131	      0.74555378	      5.77744219	      0.43676467	      0.88925648	      1.08111264	     27.85061726	     -7.56662559	    -13.31985950	    -44.06301818	     -0.76904475	      3.39412252	    -15.51136232	     18.98948617	      3.19106168	     -0.51723182	      9.78918729	    -26.92319664	     -0.46989843	     14.05911736	      1.39281542	     -0.25897436	     -5.90528897	     -1.82296059	     -7.06432037	     -5.37831219	     -7.06640958	    -16.74213159	     20.56450901	     89.95437384	      0.00000000	      0.00000000	      5.81466735	     12.97036645	     12.88363818	     46.35460827	     89.95437384	      0.00000000	      0.00000000
      1.67000000	      0.74100199	      0.20865755	      6.26882451	      0.44676656	      0.88997313	      1.08153703	     26.86512681	     -6.84509534	    -13.69733014	    -40.13084777	     -0.70041543	      2.55128597	    -15.03834390	     18.96591493	      1.59150868	      0.65666784	     10.58676015	    -26.52187309	     -0.46289401	     13.46606327	     -1.05034947	     -2.75546627	     -6.72292450	     -1.14428281	     -7.49898806	     -5.53903969	     -6.88741735	    -17.30074928	     20.24187037	     89.95437384	      0.00000000	      0.00000000	      6.12642102	     13.18826013	     12.85972785	     47.46600679	     89.95437384	      0.00000000	      0.00000000
      1.68000000	      0.24775465	      0.55591773	      6.60944600	      0.45574574	      0.88854574	      1.08119198	     27.63915977	     -7.40597970	    -13.79633055	    -37.05946575	     -0.64680970	      2.49493399	    -14.15756968	     18.77133377	      1.40852170	      0.33423426	     10.58480539	    -26.44623642	     -0.46157390	     13.60494029	     -1.17440109	     -2.88841907	     -6.30451959	     -1.49442648	     -7.76729184	     -5.99933308	     -6.78260970	    -17.35946942	     20.19669619	     89.95437384	      0.00000000	      0.00000000	      6.52769563	     13.39873423	     12.65556862	     48.23399746	     89.95437384	      0.00000000	      0.00000000
      1.69000000	      0.45706375	      0.43987943	      7.07478436	      0.46540142	      0.88827376	      1.08105409	     27.28957024	     -7.48440362	    -14.65158266	    -33.62513208	     -0.58686927	      2.74105029	    -12.58697179	     18.48746222	      0.37681008	      0.68650307	     10.49881632	    -26.16784743	     -0.45671510	     13.52697056	     -1.73292730	     -3.52017697	     -6.58564020	     -1.26040048	     -8.07226677	     -6.24857259	     -6.69051974	    -17.77606825	     19.88773553	     89.95437384	      0.00000000	      0.00000000	      6.90828659	     13.50889736	     12.53949163	     49.10060136	     89.95437384	      0.00000000	      0.00000000
      1.70000000	      0.24040004	      0.59085579	      7.39747296	      0.47478092	      0.88723489	      1.08101675	     27.54864929	     -7.87700884	    -15.25670806	    -30.61070775	     -0.53425764	      3.33441956	    -10.66362821	     17.53707328	     -0.13691649	      0.77335142	     10.82303896	    -26.01184292	     -0.45399230	     13.18728453	     -2.77555110	     -4.83297085	     -6.43309596	     -1.36813966	     -8.28541148	     -6.61026309	     -6.61369924	    -17.90845350	     19.79902266	     89.95437384	      0.00000000	      0.00000000	      7.24887411	     13.67842221	     12.34799386	     49.83827795	     89.95437384	      0.00000000	      0.00000000
      1.71000000	     -0.26964211	      0.86627175	      7.71530273	      0.48384239	      0.88568837	      1.08103165	     28.21058820	     -8.34089196	    -15.54080937	    -27.86608952	     -0.48635501	      3.82369650	     -9.72152599	     17.29721436	     -0.25821232	      0.58400881	     10.81538799	    -26.00711043	     -0.45390971	     13.18065548	     -2.95580548	     -4.95119186	     -5.99653388	     -1.65064212	     -8.50168825	     -7.00412522	     -6.51515256	    -17.97534462	     19.73724083	     89.95437384	      0.00000000	      0.00000000	      7.55757631	     13.85785392	     12.13399727	     50.50287925	     89.95437384	      0.00000000	      0.00000000
